<svg width="64" height="64" viewBox="0 0 64 64" fill="none" xmlns="http://www.w3.org/2000/svg">
<path fill-rule="evenodd" clip-rule="evenodd" d="M32 60C16.536 60 4 47.464 4 32C4 16.536 16.536 4 32 4C47.464 4 60 16.536 60 32C60 47.464 47.464 60 32 60ZM0 32C0 14.3269 14.3269 0 32 0C49.6731 0 64 14.3269 64 32C64 49.6731 49.6731 64 32 64C14.3269 64 0 49.6731 0 32ZM20.336 50.752C21.1573 50.928 22.1107 51.016 23.196 51.016C22.7853 50.488 22.58 49.6667 22.58 48.552C22.58 46.2933 23.108 43.2867 24.164 39.532C25.2493 35.748 26.628 32.052 28.3 28.444C29.3267 28.532 30.2947 28.6933 31.204 28.928C32.1133 29.1627 33.1107 29.5293 34.196 30.028L30.808 46H37.144L44.052 13.616C43.1427 13.2053 41.984 13 40.576 13C38.1413 13 35.5747 14.2173 32.876 16.652C30.2067 19.0573 27.6693 22.1667 25.264 25.98C24.3547 25.892 23.592 25.848 22.976 25.848C21.304 25.848 19.7787 26.0973 18.4 26.596C17.0213 27.0653 15.936 27.7107 15.144 28.532C14.3813 29.3533 14 30.2627 14 31.26C14 32.0813 14.2493 32.712 14.748 33.152C15.2467 33.592 15.9067 33.812 16.728 33.812C17.432 33.812 18.0187 33.6653 18.488 33.372C18.9573 33.0493 19.192 32.624 19.192 32.096C19.192 31.7733 19.1187 31.4653 18.972 31.172C18.8547 30.8787 18.7373 30.732 18.62 30.732C18.884 29.9987 19.4413 29.456 20.292 29.104C21.1427 28.752 22.3013 28.532 23.768 28.444C21.832 31.788 20.2627 35.1173 19.06 38.432C17.8867 41.7467 17.3 44.3867 17.3 46.352C17.3 47.76 17.5933 48.8013 18.18 49.476C18.796 50.1507 19.5147 50.576 20.336 50.752ZM33.184 19.908C34.5627 18.06 35.8827 16.7987 37.144 16.124L34.592 28.092C33.1253 27.476 31.336 26.9627 29.224 26.552C30.5147 23.9413 31.8347 21.7267 33.184 19.908Z" fill="hsl(43, 100%, 51%)"/>
</svg>
